<?xml version="1.0" standalone="no"?>
<!DOCTYPE svg PUBLIC "-//W3C//DTD SVG 20010904//EN"
 "http://www.w3.org/TR/2001/REC-SVG-20010904/DTD/svg10.dtd">
<svg version="1.0" xmlns="http://www.w3.org/2000/svg"
 width="512.000000pt" height="512.000000pt" viewBox="0 0 512.000000 512.000000"
 preserveAspectRatio="xMidYMid meet">
<metadata>
Created by potrace 1.14, written by Peter Selinger 2001-2017
</metadata>
<g transform="translate(0.000000,512.000000) scale(0.100000,-0.100000)"
fill="#000000" stroke="none">
<path d="M4087 4267 c-21 -12 -40 -32 -43 -44 -4 -13 -10 -23 -15 -23 -5 0 -9
-5 -9 -12 0 -27 -68 -99 -120 -127 -60 -32 -88 -39 -169 -46 -59 -4 -117 -38
-148 -84 -23 -36 -23 -113 1 -246 10 -52 56 -341 56 -349 0 -7 -103 -4 -315
10 -38 3 -303 6 -588 8 -285 2 -519 5 -521 7 -3 2 -6 42 -8 89 l-3 84 33 3
c49 4 100 31 128 69 32 41 40 122 16 170 -20 42 -79 73 -130 68 -89 -8 -163
-15 -184 -19 -13 -2 -50 -9 -83 -15 -33 -5 -73 -12 -90 -15 -16 -3 -52 -10
-80 -16 -27 -6 -61 -13 -75 -15 -131 -25 -183 -75 -174 -168 7 -78 74 -146
144 -146 21 0 70 7 109 16 40 9 73 15 75 13 2 -2 6 -47 9 -99 4 -52 9 -107 12
-122 5 -26 -3 -42 -42 -82 -6 -7 -35 -42 -64 -77 -29 -35 -55 -66 -58 -69 -4
-3 -28 -32 -56 -65 -27 -33 -59 -71 -72 -85 -12 -14 -61 -71 -109 -127 -47
-57 -92 -103 -98 -103 -7 0 -30 9 -52 19 -62 30 -211 77 -304 96 -55 12 -133
19 -220 19 -126 1 -137 -1 -167 -22 -18 -13 -40 -37 -50 -53 -10 -17 -47 -48
-84 -69 -186 -109 -332 -261 -425 -440 -15 -30 -28 -57 -29 -60 0 -3 -10 -30
-22 -61 -66 -172 -77 -414 -27 -567 23 -70 76 -182 85 -182 5 0 9 -5 9 -11 0
-17 92 -130 153 -188 160 -151 333 -239 567 -287 81 -16 299 -11 390 9 274 62
510 250 643 513 28 56 77 199 77 226 0 10 7 19 15 19 8 1 18 2 23 3 4 1 34 6
67 10 104 13 127 17 260 43 144 27 230 62 314 125 63 47 288 270 451 447 63
68 208 217 321 330 225 225 275 283 294 337 l12 36 13 -79 c7 -43 15 -85 17
-93 2 -8 4 -28 5 -44 1 -33 6 -29 -131 -117 -107 -69 -247 -203 -310 -296 -65
-97 -135 -263 -155 -368 -4 -16 -9 -41 -12 -55 -3 -14 -7 -69 -9 -122 -5 -165
42 -325 138 -473 65 -99 229 -252 337 -314 281 -162 585 -193 876 -90 84 30
164 69 195 95 8 8 18 14 21 14 10 0 71 53 137 120 187 188 285 449 276 735
-12 377 -298 712 -736 859 -41 14 -85 27 -99 30 -14 3 -34 7 -45 10 -95 22
-124 27 -147 28 -16 1 -29 8 -32 17 -16 60 -91 458 -122 650 -3 18 -8 43 -10
55 -2 11 -7 35 -9 51 -3 17 -10 54 -15 84 -16 90 -13 96 49 107 8 2 49 19 90
40 183 89 324 312 267 422 -38 74 -143 103 -219 59z m-739 -1229 c23 -1 42 -4
42 -6 0 -4 -165 -191 -245 -277 -16 -18 -52 -57 -79 -86 -154 -170 -551 -579
-562 -579 -1 0 -14 51 -28 113 -15 61 -31 128 -36 147 -8 28 -43 169 -85 343
-2 10 -7 27 -10 37 -3 10 -8 27 -10 37 -3 18 -61 231 -71 266 -6 18 13 19 518
13 287 -3 542 -7 566 -8z m-1318 -313 c17 -66 33 -127 35 -135 1 -8 24 -98 49
-200 57 -235 106 -440 106 -448 0 -4 -26 -8 -57 -10 -32 -1 -86 -4 -120 -7
-68 -5 -65 -8 -79 79 -11 71 -55 174 -113 266 -32 50 -64 89 -144 172 l-28 29
28 33 c15 18 46 54 68 80 22 26 48 58 58 70 11 11 35 41 55 65 21 24 52 60 69
80 18 20 33 40 33 45 0 23 10 -7 40 -119z m-935 -280 c54 -14 114 -34 124 -41
3 -3 -148 -196 -276 -354 -76 -94 -150 -193 -151 -203 -1 -7 -4 -39 -7 -72 -6
-53 -4 -64 17 -94 12 -19 39 -44 58 -55 33 -20 50 -20 417 -20 l383 1 -6 -21
c-3 -12 -12 -34 -20 -50 -8 -16 -14 -35 -14 -43 0 -7 -3 -13 -8 -13 -4 0 -14
-15 -21 -32 -8 -18 -49 -67 -91 -109 -62 -63 -94 -85 -171 -122 -117 -56 -208
-79 -313 -78 -70 1 -99 4 -151 15 -204 45 -395 183 -488 354 -87 159 -85 386
4 556 45 87 124 181 201 239 65 49 205 122 263 137 6 2 26 9 45 16 41 16 119
12 205 -11z m3185 -17 c72 -23 183 -76 233 -110 41 -29 146 -134 173 -173 130
-189 158 -436 73 -630 -93 -212 -347 -372 -597 -376 -263 -4 -516 134 -641
350 -49 84 -74 176 -75 270 -2 139 16 215 76 321 58 105 148 199 244 257 30
18 58 33 63 33 4 0 18 -46 30 -102 30 -139 25 -120 71 -301 50 -199 61 -226
107 -256 92 -60 229 1 238 105 2 19 -10 85 -26 147 -16 62 -45 177 -64 257
-19 80 -39 161 -45 181 -18 64 -15 68 33 58 23 -5 71 -19 107 -31z m-2718
-298 c7 -14 15 -27 19 -30 14 -13 69 -151 69 -175 0 -6 -78 -10 -214 -11
l-213 -1 61 76 c33 42 63 78 66 81 3 3 24 27 45 55 22 27 51 62 65 78 l24 28
32 -38 c18 -21 39 -49 46 -63z"/>
</g>
</svg>
